# xmcd CD database file
#
# Track frame offsets:
#	150
#	14747
#	30130
#	42412
#	56740
#	72332
#	87367
#	103007
#	116910
#	131845
#	145002
#	159032
#	173680
#	187700
#	202820
#	216692
#	231865
#	245497
#
# Disc length: 3454 seconds
#
# Revision: 0
# Processed by: cddbd v1.5.1PL2 Copyright (c) Steve Scherf et al.
# Submitted via: CDex 1.51
#
DISCID=fa0d7c12
DTITLE=淡谷のり子 - 別れのブルース
DYEAR=1998
DGENRE=Chanson
TTITLE0=私此頃憂鬱よ
TTITLE1=青い小径
TTITLE2=ヴエニ・ヴエン
TTITLE3=ポエマ
TTITLE4=巴里祭
TTITLE5=暗い日曜日
TTITLE6=別れのブルース
TTITLE7=私のトランペット
TTITLE8=人の気も知らないで
TTITLE9=雨のブルース
TTITLE10=日暮の窓で
TTITLE11=ルンバ・タンバ
TTITLE12=誕生日の午後
TTITLE13=東京ブルース
TTITLE14=鈴蘭物語
TTITLE15=ルムバ上海
TTITLE16=満州ブルース
TTITLE17=エッフェル塔の嘆き
EXTD=YEAR: 1998
EXTT0=
EXTT1=
EXTT2=
EXTT3=
EXTT4=
EXTT5=
EXTT6=
EXTT7=
EXTT8=
EXTT9=
EXTT10=
EXTT11=
EXTT12=
EXTT13=
EXTT14=
EXTT15=
EXTT16=
EXTT17=
PLAYORDER=
